# xmcd CD database file
#
# Track frame offsets:
#	150
#	13507
#	39532
#	59890
#	75612
#	93022
#	113475
#	133280
#	161122
#	176230
#	192070
#	208415
#	226425
#
# Disc length: 3421 seconds
#
# Revision: 0
# Processed by: cddbd v1.5.2PL0 Copyright (c) Steve Scherf et al.
# Submitted via: CDex 1.51
#
DISCID=b40d5b0d
DTITLE=James Van Burne - Virus called the blues
DYEAR=2004
DGENRE=Blues
TTITLE0=Cheatin' and Lyin'
TTITLE1=It Was A Dream
TTITLE2=Real Good Woman
TTITLE3=El Chapultepec Shuffle
TTITLE4=Mellow Bossa Nova
TTITLE5=One More Mile
TTITLE6=Slow Down Blues
TTITLE7=Virus Called The Blues
TTITLE8=It Ain't Doin' Too Bad
TTITLE9=Lonesome Blues
TTITLE10=Three Handed Woman
TTITLE11=Country Down
TTITLE12=Tuesdays
EXTD=YEAR: 2004
EXTT0=
EXTT1=
EXTT2=
EXTT3=
EXTT4=
EXTT5=
EXTT6=
EXTT7=
EXTT8=
EXTT9=
EXTT10=
EXTT11=
EXTT12=
PLAYORDER=
